<?xml version="1.0" encoding="UTF-8" standalone="no"?>
<!-- Created with Inkscape (http://www.inkscape.org/) -->
<svg
   xmlns:svg="http://www.w3.org/2000/svg"
   xmlns="http://www.w3.org/2000/svg"
   version="1.0"
   width="500"
   height="400"
   viewBox="0 0 1052.361 744.094"
   id="svg2455"
   xml:space="preserve"><defs
   id="defs119" />
<g
   transform="matrix(1.6577836,0,0,1.6577836,-329.11185,-281.33949)"
   id="layer1">
	<g
   id="path3">
		<path
   d="M 382.933,234.061 L 376.787,234.061 C 365.961,235.264 354.869,235.665 344.043,236.2 C 352.597,239.274 361.15,242.214 369.97,244.619 C 373.579,245.287 375.449,241.412 377.855,239.676 L 381.865,239.676 C 384.27,241.413 386.14,245.289 389.749,244.619 C 398.569,242.214 407.122,239.274 415.675,236.2 C 404.851,235.666 393.76,235.264 382.933,234.061 z"
   id="path5" />
	</g>
	<g
   id="g7">
		<path
   d="M 293.931,315.025 L 293.931,321.171 C 295.134,331.997 295.535,343.089 296.07,353.915 C 299.144,345.361 302.084,336.808 304.489,327.988 C 305.157,324.379 301.282,322.509 299.546,320.103 L 299.546,316.093 C 301.282,313.688 305.159,311.818 304.489,308.208 C 302.084,299.388 299.143,290.835 296.07,282.282 C 295.536,293.107 295.135,304.199 293.931,315.025 z"
   id="path9" />
	</g>
	<g
   id="line7">
		<polygon
   points="377.917,320.895 377.917,174.019 381.803,174.019 381.803,320.895 377.917,320.895 "
   id="polygon12"
   style="fill:#00c400" />
	</g>
	<g
   id="line9">
		<polygon
   points="233.89,319.475 233.89,315.589 380.765,315.589 380.765,319.475 233.89,319.475 "
   id="polygon15"
   style="fill:#00c400" />
	</g>
	<g
   id="path11">
		<path
   d="M 519.035,453.623 L 512.889,453.623 C 502.063,454.826 490.971,455.227 480.145,455.761 C 488.698,458.835 497.252,461.777 506.072,464.181 C 509.68,464.849 511.551,460.974 513.956,459.238 L 517.966,459.238 C 520.371,460.974 522.242,464.85 525.85,464.181 C 534.671,461.777 543.224,458.835 551.777,455.761 C 540.954,455.227 529.861,454.825 519.035,453.623 z"
   id="path18" />
	</g>
	<g
   id="line13">
		<polygon
   points="513.652,637.704 513.652,379.313 518.315,379.313 518.315,637.704 513.652,637.704 "
   id="polygon21"
   style="fill:#00c400" />
	</g>
	<g
   id="path15">
		<path
   d="M 382.826,315.273 L 378.481,319.619 C 371.676,328.125 364.117,336.252 356.84,344.285 C 365.062,340.41 373.189,336.441 381.126,331.905 C 384.15,329.826 382.732,325.763 383.205,322.834 L 386.04,319.999 C 388.969,319.527 393.032,320.944 395.111,317.92 C 399.647,309.982 403.615,301.854 407.49,293.633 C 399.459,300.909 391.331,308.469 382.826,315.273 z"
   id="path24" />
	</g>
	<g
   id="line17">
		<polygon
   points="328.102,268.004 330.85,265.256 517.218,451.625 514.469,454.374 328.102,268.004 "
   id="polygon27"
   style="fill:#00c400" />
	</g>
	<g
   id="line19">
		<polygon
   points="245.726,273.443 248.473,270.695 294.518,316.741 291.77,319.487 245.726,273.443 "
   id="polygon30"
   style="fill:#00c400" />
	</g>
	<g
   id="line21">
		<polygon
   points="246.018,362.298 292.062,316.254 294.81,319.003 248.765,365.045 246.018,362.298 "
   id="polygon33"
   style="fill:#00c400" />
	</g>
	<g
   id="circle23">
		<circle
   cx="242.3"
   cy="362.27701"
   r="14.346"
   id="circle36"
   style="fill:#ff0000" />
	</g>
	<g
   id="circle25">
		<circle
   cx="242.689"
   cy="272.51999"
   r="14.346"
   id="circle39"
   style="fill:#ff0000" />
	</g>
	<g
   id="circle27">
		<circle
   cx="229.478"
   cy="316.815"
   r="14.346"
   id="circle42"
   style="fill:#ff0000" />
	</g>
	<g
   id="circle29">
		<circle
   cx="324.28601"
   cy="259.69699"
   r="14.346"
   id="circle45"
   style="fill:#ff0000" />
	</g>
	<g
   id="line31">
		<polygon
   points="379.018,231.901 425.063,185.856 427.81,188.603 381.767,234.647 379.018,231.901 "
   id="polygon48"
   style="fill:#00c400" />
	</g>
	<g
   id="line33">
		<polygon
   points="332.294,188.895 335.041,186.147 381.087,232.191 378.338,234.938 332.294,188.895 "
   id="polygon51"
   style="fill:#00c400" />
	</g>
	<g
   id="circle35">
		<circle
   cx="335.065"
   cy="182.42999"
   r="14.345"
   id="circle54"
   style="fill:#ff0000" />
	</g>
	<g
   id="circle37">
		<circle
   cx="424.82199"
   cy="182.819"
   r="14.345"
   id="circle57"
   style="fill:#ff0000" />
	</g>
	<g
   id="g59">
		<circle
   cx="379.85999"
   cy="169.608"
   r="14.345"
   id="circle61"
   style="fill:#ff0000" />
	</g>
	<g
   id="circle41">
		<circle
   cx="516.23401"
   cy="372.76801"
   r="14.346"
   id="circle64"
   style="fill:#ff0000" />
	</g>
	<g
   id="path43">
		<path
   d="M 649.229,234.061 L 655.375,234.061 C 666.2,235.264 677.292,235.665 688.119,236.2 C 679.565,239.274 671.013,242.214 662.191,244.619 C 658.584,245.287 656.712,241.412 654.307,239.676 L 650.298,239.676 C 647.891,241.413 646.023,245.289 642.413,244.619 C 633.593,242.214 625.04,239.274 616.486,236.2 C 627.312,235.666 638.403,235.264 649.229,234.061 z"
   id="path67" />
	</g>
	<g
   id="path45">
		<path
   d="M 738.23,315.025 L 738.23,321.171 C 737.027,331.997 736.628,343.089 736.091,353.915 C 733.019,345.361 730.078,336.808 727.672,327.988 C 727.004,324.379 730.881,322.509 732.617,320.103 L 732.617,316.093 C 730.881,313.688 727.004,311.818 727.672,308.208 C 730.078,299.388 733.019,290.835 736.091,282.282 C 736.628,293.107 737.027,304.199 738.23,315.025 z"
   id="path70" />
	</g>
	<g
   id="line47">
		<polygon
   points="650.359,320.895 650.359,174.019 654.243,174.019 654.243,320.895 650.359,320.895 "
   id="polygon73"
   style="fill:#00c400" />
	</g>
	<g
   id="line49">
		<polygon
   points="651.398,319.473 651.398,315.588 798.273,315.588 798.273,319.473 651.398,319.473 "
   id="polygon76"
   style="fill:#00c400" />
	</g>
	<g
   id="path51">
		<path
   d="M 649.335,315.273 L 653.681,319.619 C 660.487,328.125 668.046,336.252 675.323,344.285 C 667.102,340.41 658.974,336.441 651.038,331.905 C 648.012,329.826 649.432,325.763 648.958,322.834 L 646.123,319.999 C 643.193,319.527 639.131,320.944 637.052,317.92 C 632.517,309.982 628.547,301.854 624.672,293.633 C 632.703,300.909 640.831,308.469 649.335,315.273 z"
   id="path79" />
	</g>
	<g
   id="line53">
		<polygon
   points="514.943,451.625 701.313,265.256 704.061,268.004 517.692,454.373 514.943,451.625 "
   id="polygon82"
   style="fill:#00c400" />
	</g>
	<g
   id="line55">
		<polygon
   points="737.644,316.74 783.688,270.696 786.436,273.443 740.391,319.487 737.644,316.74 "
   id="polygon85"
   style="fill:#00c400" />
	</g>
	<g
   id="line57">
		<polygon
   points="737.352,319.002 740.1,316.254 786.145,362.299 783.397,365.046 737.352,319.002 "
   id="polygon88"
   style="fill:#00c400" />
	</g>
	<g
   id="circle59">
		<circle
   cx="789.862"
   cy="362.27701"
   r="14.345"
   id="circle91"
   style="fill:#ff0000" />
	</g>
	<g
   id="g93">
		<circle
   cx="789.474"
   cy="272.51999"
   r="14.346"
   id="circle95"
   style="fill:#ff0000" />
	</g>
	<g
   id="circle63">
		<circle
   cx="802.685"
   cy="316.815"
   r="14.346"
   id="circle98"
   style="fill:#ff0000" />
	</g>
	<g
   id="circle65">
		<circle
   cx="707.87598"
   cy="259.69699"
   r="14.345"
   id="circle101"
   style="fill:#ff0000" />
	</g>
	<g
   id="line67">
		<polygon
   points="604.35,188.603 607.099,185.856 653.142,231.9 650.393,234.647 604.35,188.603 "
   id="polygon104"
   style="fill:#00c400" />
	</g>
	<g
   id="line69">
		<polygon
   points="651.075,232.191 697.118,186.147 699.867,188.895 653.822,234.94 651.075,232.191 "
   id="polygon107"
   style="fill:#00c400" />
	</g>
	<g
   id="circle71">
		<circle
   cx="697.09698"
   cy="182.42999"
   r="14.345"
   id="circle110"
   style="fill:#ff0000" />
	</g>
	<g
   id="circle73">
		<circle
   cx="607.33801"
   cy="182.819"
   r="14.345"
   id="circle113"
   style="fill:#ff0000" />
	</g>
	<g
   id="path75">
		<path
   d="M 652.304,183.953 C 660.225,183.953 666.648,177.53 666.648,169.607 C 666.648,161.685 660.225,155.262 652.304,155.262 C 644.379,155.262 637.958,161.685 637.958,169.607 C 637.958,177.53 644.378,183.953 652.304,183.953 z"
   id="path116"
   style="fill:#ff0000" />
	</g>
</g>
</svg>