<?xml version="1.0" encoding="UTF-8" standalone="no"?>
<!-- Created with Inkscape (http://www.inkscape.org/) -->
<svg
   xmlns:dc="http://purl.org/dc/elements/1.1/"
   xmlns:cc="http://web.resource.org/cc/"
   xmlns:rdf="http://www.w3.org/1999/02/22-rdf-syntax-ns#"
   xmlns:svg="http://www.w3.org/2000/svg"
   xmlns="http://www.w3.org/2000/svg"
   xmlns:sodipodi="http://inkscape.sourceforge.net/DTD/sodipodi-0.dtd"
   xmlns:inkscape="http://www.inkscape.org/namespaces/inkscape"
   width="350.00000px"
   height="500.00000px"
   id="svg2"
   sodipodi:version="0.32"
   inkscape:version="0.40+cvs"
   sodipodi:docbase="C:\Program Files\Grafika\Inkscape 0.41-1"
   sodipodi:docname="Wiecha.svg">
  <defs
     id="defs3" />
  <sodipodi:namedview
     id="base"
     pagecolor="#ffffff"
     bordercolor="#666666"
     borderopacity="1.0"
     inkscape:pageopacity="0.0"
     inkscape:pageshadow="2"
     inkscape:zoom="1.1400000"
     inkscape:cx="175.00003"
     inkscape:cy="250.00000"
     inkscape:document-units="px"
     inkscape:current-layer="g2999"
     inkscape:window-width="1024"
     inkscape:window-height="749"
     inkscape:window-x="-4"
     inkscape:window-y="-4" />
  <metadata
     id="metadata4">
    <rdf:RDF
       id="RDF5">
      <cc:Work
         rdf:about=""
         id="Work6">
        <dc:format
           id="format7">image/svg+xml</dc:format>
        <dc:type
           id="type9"
           rdf:resource="http://purl.org/dc/dcmitype/StillImage" />
      </cc:Work>
    </rdf:RDF>
  </metadata>
  <g
     inkscape:label="Layer 1"
     inkscape:groupmode="layer"
     id="layer1">
    <g
       id="g2999"
       inkscape:groupmode="layer"
       inkscape:label="Layer 1"
       transform="translate(79.14726,30.17799)">
      <path
         id="path3060"
         d="M 112.30534,31.084118 L 121.26942,36.722868 L 136.87357,43.276488 L 113.27614,39.651138 L 112.30534,31.084118 z "
         style="fill:#00c400;fill-opacity:1.0000000;fill-rule:evenodd;stroke:none;stroke-width:1.0000000px;stroke-linecap:butt;stroke-linejoin:miter;stroke-opacity:1.0000000" />
      <path
         id="path2900"
         d="M 112.52274,137.39172 L 121.48682,143.03048 L 137.09097,149.58409 L 113.49354,145.95874 L 112.52274,137.39172 z "
         style="fill:#00c400;fill-opacity:1.0000000;fill-rule:evenodd;stroke:none;stroke-width:1.0000000px;stroke-linecap:butt;stroke-linejoin:miter;stroke-opacity:1.0000000" />
      <path
         sodipodi:nodetypes="cc"
         id="path2902"
         d="M 113.34733,138.48438 L 199.50864,72.934424"
         style="fill:none;fill-opacity:0.75000000;fill-rule:evenodd;stroke:#00c400;stroke-width:1.4971434px;stroke-linecap:butt;stroke-linejoin:miter;stroke-opacity:1.0000000" />
      <path
         sodipodi:type="arc"
         style="fill:#ff0000;fill-opacity:1.0000000;fill-rule:nonzero;stroke:none;stroke-width:1.6900001;stroke-miterlimit:4.0000000;stroke-dashoffset:0.00000000;stroke-opacity:1.0000000"
         id="path2904"
         sodipodi:cx="219.94737"
         sodipodi:cy="149.00691"
         sodipodi:rx="8.0298243"
         sodipodi:ry="7.5061402"
         d="M 227.97720 149.00691 A 8.0298243 7.5061402 0 1 1  211.91755,149.00691 A 8.0298243 7.5061402 0 1 1  227.97720 149.00691 z"
         transform="matrix(1.424061,0.000000,0.000000,-1.468919,-105.1425,285.1964)" />
      <path
         id="path2906"
         d="M 112.87860,296.15204 L 121.84268,301.79080 L 137.44683,308.34442 L 113.84939,304.71907 L 112.87860,296.15204 z "
         style="fill:#00c400;fill-opacity:1.0000000;fill-rule:evenodd;stroke:none;stroke-width:1.0000000px;stroke-linecap:butt;stroke-linejoin:miter;stroke-opacity:1.0000000" />
      <path
         sodipodi:nodetypes="cc"
         id="path2908"
         d="M 113.70319,297.32497 L 250.13313,183.94655"
         style="fill:none;fill-opacity:0.75000000;fill-rule:evenodd;stroke:#00c400;stroke-width:1.4971434px;stroke-linecap:butt;stroke-linejoin:miter;stroke-opacity:1.0000000" />
      <path
         sodipodi:type="arc"
         style="fill:#ff0000;fill-opacity:1.0000000;fill-rule:nonzero;stroke:none;stroke-width:1.6900001;stroke-miterlimit:4.0000000;stroke-dashoffset:0.00000000;stroke-opacity:1.0000000"
         id="path2910"
         sodipodi:cx="219.94737"
         sodipodi:cy="149.00691"
         sodipodi:rx="8.0298243"
         sodipodi:ry="7.5061402"
         d="M 227.97720 149.00691 A 8.0298243 7.5061402 0 1 1  211.91755,149.00691 A 8.0298243 7.5061402 0 1 1  227.97720 149.00691 z"
         transform="matrix(1.424061,0.000000,0.000000,-1.468919,-55.51671,397.1714)" />
      <path
         id="path2912"
         d="M 112.64735,80.486074 L 103.68327,86.124827 L 88.079125,92.678441 L 111.67655,89.053093 L 112.64735,80.486074 z "
         style="fill:#00c400;fill-opacity:1.0000000;fill-rule:evenodd;stroke:none;stroke-width:1.0000000px;stroke-linecap:butt;stroke-linejoin:miter;stroke-opacity:1.0000000" />
      <path
         sodipodi:nodetypes="cc"
         id="path2914"
         d="M 111.52451,81.802771 L 63.636835,42.066208"
         style="fill:none;fill-opacity:0.75000000;fill-rule:evenodd;stroke:#00c400;stroke-width:1.4971434px;stroke-linecap:butt;stroke-linejoin:miter;stroke-opacity:1.0000000" />
      <path
         sodipodi:type="arc"
         style="fill:#ff0000;fill-opacity:1.0000000;fill-rule:nonzero;stroke:none;stroke-width:1.6900001;stroke-miterlimit:4.0000000;stroke-dashoffset:0.00000000;stroke-opacity:1.0000000"
         id="path2916"
         sodipodi:cx="219.94737"
         sodipodi:cy="149.00691"
         sodipodi:rx="8.0298243"
         sodipodi:ry="7.5061402"
         d="M 227.97720 149.00691 A 8.0298243 7.5061402 0 1 1  211.91755,149.00691 A 8.0298243 7.5061402 0 1 1  227.97720 149.00691 z"
         transform="matrix(-1.424061,0.000000,0.000000,-1.468919,369.6196,254.6491)" />
      <path
         id="path2918"
         d="M 112.60225,201.56848 L 103.63817,207.20724 L 88.034015,213.76085 L 111.63146,210.13552 L 112.60225,201.56848 z "
         style="fill:#00c400;fill-opacity:1.0000000;fill-rule:evenodd;stroke:none;stroke-width:1.0000000px;stroke-linecap:butt;stroke-linejoin:miter;stroke-opacity:1.0000000" />
      <path
         sodipodi:nodetypes="cc"
         id="path2920"
         d="M 112.22500,203.46034 L 24.354085,130.66116"
         style="fill:none;fill-opacity:0.75000000;fill-rule:evenodd;stroke:#00c400;stroke-width:1.4971434px;stroke-linecap:butt;stroke-linejoin:miter;stroke-opacity:1.0000000" />
      <path
         sodipodi:type="arc"
         style="fill:#ff0000;fill-opacity:1.0000000;fill-rule:nonzero;stroke:none;stroke-width:1.6900001;stroke-miterlimit:4.0000000;stroke-dashoffset:0.00000000;stroke-opacity:1.0000000"
         id="path2922"
         sodipodi:cx="219.94737"
         sodipodi:cy="149.00691"
         sodipodi:rx="8.0298243"
         sodipodi:ry="7.5061402"
         d="M 227.97720 149.00691 A 8.0298243 7.5061402 0 1 1  211.91755,149.00691 A 8.0298243 7.5061402 0 1 1  227.97720 149.00691 z"
         transform="matrix(-1.424061,0.000000,0.000000,-1.468919,329.6711,343.2441)" />
      <path
         id="path2924"
         d="M 112.39894,384.28517 L 103.43485,389.92393 L 87.830715,396.47753 L 111.42814,392.85219 L 112.39894,384.28517 z "
         style="fill:#00c400;fill-opacity:1.0000000;fill-rule:evenodd;stroke:none;stroke-width:1.0000000px;stroke-linecap:butt;stroke-linejoin:miter;stroke-opacity:1.0000000" />
      <path
         sodipodi:nodetypes="cc"
         id="path2926"
         d="M 111.57434,385.45808 L -58.811901,245.75797"
         style="fill:none;fill-opacity:0.75000000;fill-rule:evenodd;stroke:#00c400;stroke-width:1.4971434px;stroke-linecap:butt;stroke-linejoin:miter;stroke-opacity:1.0000000" />
      <path
         sodipodi:type="arc"
         style="fill:#ff0000;fill-opacity:1.0000000;fill-rule:nonzero;stroke:none;stroke-width:1.6900001;stroke-miterlimit:4.0000000;stroke-dashoffset:0.00000000;stroke-opacity:1.0000000"
         id="path2928"
         sodipodi:cx="219.94737"
         sodipodi:cy="149.00691"
         sodipodi:rx="8.0298243"
         sodipodi:ry="7.5061402"
         d="M 227.97720 149.00691 A 8.0298243 7.5061402 0 1 1  211.91755,149.00691 A 8.0298243 7.5061402 0 1 1  227.97720 149.00691 z"
         transform="matrix(-1.424061,0.000000,0.000000,-1.468919,245.5062,458.3408)" />
      <path
         id="path2934"
         d="M 80.551465,56.950318 L 90.642625,53.511118 L 105.52169,45.542458 L 88.198205,61.411926 L 80.551465,56.950318 z "
         style="fill:#00c400;fill-opacity:1.0000000;fill-rule:evenodd;stroke:none;stroke-width:1.0000000px;stroke-linecap:butt;stroke-linejoin:miter;stroke-opacity:1.0000000" />
      <path
         id="path2936"
         d="M 82.314285,56.603048 L 87.973665,34.775298"
         style="fill:none;fill-opacity:0.75000000;fill-rule:evenodd;stroke:#00c400;stroke-width:1.4971434px;stroke-linecap:butt;stroke-linejoin:miter;stroke-opacity:1.0000000" />
      <path
         id="path3696"
         d="M 42.224565,145.16786 L 52.672085,142.92658 L 68.438815,136.74535 L 49.257815,150.48568 L 42.224565,145.16786 z "
         style="fill:#00c400;fill-opacity:1.0000000;fill-rule:evenodd;stroke:none;stroke-width:1.0000000px;stroke-linecap:butt;stroke-linejoin:miter;stroke-opacity:1.0000000" />
      <path
         id="path3698"
         d="M 42.839325,145.14671 L 48.498705,123.31897"
         style="fill:none;fill-opacity:0.75000000;fill-rule:evenodd;stroke:#00c400;stroke-width:1.4971434px;stroke-linecap:butt;stroke-linejoin:miter;stroke-opacity:1.0000000" />
      <path
         sodipodi:type="arc"
         style="fill:#ff0000;fill-opacity:1.0000000;fill-rule:nonzero;stroke:none;stroke-width:1.6900001;stroke-miterlimit:4.0000000;stroke-dashoffset:0.00000000;stroke-opacity:1.0000000"
         id="path3700"
         sodipodi:cx="219.94737"
         sodipodi:cy="149.00691"
         sodipodi:rx="8.0298243"
         sodipodi:ry="7.5061402"
         d="M 227.97720 149.00691 A 8.0298243 7.5061402 0 1 1  211.91755,149.00691 A 8.0298243 7.5061402 0 1 1  227.97720 149.00691 z"
         transform="matrix(1.424061,0.000000,0.000000,-1.468919,-263.0554,331.6051)" />
      <path
         id="path3702"
         d="M -41.220336,261.27334 L -31.129179,257.83416 L -16.250105,249.86548 L -33.573592,265.73496 L -41.220336,261.27334 z "
         style="fill:#00c400;fill-opacity:1.0000000;fill-rule:evenodd;stroke:none;stroke-width:1.0000000px;stroke-linecap:butt;stroke-linejoin:miter;stroke-opacity:1.0000000" />
      <path
         sodipodi:nodetypes="cc"
         id="path3704"
         d="M -40.054001,260.92607 L -34.394623,238.23563"
         style="fill:none;fill-opacity:0.75000000;fill-rule:evenodd;stroke:#00c400;stroke-width:1.4971434px;stroke-linecap:butt;stroke-linejoin:miter;stroke-opacity:1.0000000" />
      <path
         sodipodi:type="arc"
         style="fill:#ff0000;fill-opacity:1.0000000;fill-rule:nonzero;stroke:none;stroke-width:1.6900001;stroke-miterlimit:4.0000000;stroke-dashoffset:0.00000000;stroke-opacity:1.0000000"
         id="path3706"
         sodipodi:cx="219.94737"
         sodipodi:cy="149.00691"
         sodipodi:rx="8.0298243"
         sodipodi:ry="7.5061402"
         d="M 227.97720 149.00691 A 8.0298243 7.5061402 0 1 1  211.91755,149.00691 A 8.0298243 7.5061402 0 1 1  227.97720 149.00691 z"
         transform="matrix(1.424061,0.000000,0.000000,-1.468919,-345.9487,446.5217)" />
      <path
         id="path3708"
         d="M 181.21396,87.935380 L 171.12280,84.496178 L 156.24375,76.527516 L 173.56721,92.396979 L 181.21396,87.935380 z "
         style="fill:#00c400;fill-opacity:1.0000000;fill-rule:evenodd;stroke:none;stroke-width:1.0000000px;stroke-linecap:butt;stroke-linejoin:miter;stroke-opacity:1.0000000" />
      <path
         sodipodi:nodetypes="cc"
         id="path3710"
         d="M 180.04762,87.875675 L 174.38825,64.897647"
         style="fill:none;fill-opacity:0.75000000;fill-rule:evenodd;stroke:#00c400;stroke-width:1.4971434px;stroke-linecap:butt;stroke-linejoin:miter;stroke-opacity:1.0000000" />
      <path
         sodipodi:type="arc"
         style="fill:#ff0000;fill-opacity:1.0000000;fill-rule:nonzero;stroke:none;stroke-width:1.6900001;stroke-miterlimit:4.0000000;stroke-dashoffset:0.00000000;stroke-opacity:1.0000000"
         id="path3712"
         sodipodi:cx="219.94737"
         sodipodi:cy="149.00691"
         sodipodi:rx="8.0298243"
         sodipodi:ry="7.5061402"
         d="M 227.97720 149.00691 A 8.0298243 7.5061402 0 1 1  211.91755,149.00691 A 8.0298243 7.5061402 0 1 1  227.97720 149.00691 z"
         transform="matrix(-1.424061,0.000000,0.000000,-1.468919,485.9423,273.1838)" />
      <path
         id="path3714"
         d="M 231.70584,199.50208 L 221.38798,196.75867 L 205.96241,189.82315 L 224.40499,204.47328 L 231.70584,199.50208 z "
         style="fill:#00c400;fill-opacity:1.0000000;fill-rule:evenodd;stroke:none;stroke-width:1.0000000px;stroke-linecap:butt;stroke-linejoin:miter;stroke-opacity:1.0000000" />
      <path
         sodipodi:nodetypes="cc"
         id="path3716"
         d="M 230.46540,199.86993 L 224.65691,176.60433"
         style="fill:none;fill-opacity:0.75000000;fill-rule:evenodd;stroke:#00c400;stroke-width:1.4971434px;stroke-linecap:butt;stroke-linejoin:miter;stroke-opacity:1.0000000" />
      <path
         sodipodi:type="arc"
         style="fill:#ff0000;fill-opacity:1.0000000;fill-rule:nonzero;stroke:none;stroke-width:1.6900001;stroke-miterlimit:4.0000000;stroke-dashoffset:0.00000000;stroke-opacity:1.0000000"
         id="path3718"
         sodipodi:cx="219.94737"
         sodipodi:cy="149.00691"
         sodipodi:rx="8.0298243"
         sodipodi:ry="7.5061402"
         d="M 227.97720 149.00691 A 8.0298243 7.5061402 0 1 1  211.91755,149.00691 A 8.0298243 7.5061402 0 1 1  227.97720 149.00691 z"
         transform="matrix(-1.424061,0.000000,0.000000,-1.468919,536.2110,384.8905)" />
      <path
         sodipodi:type="arc"
         style="fill:#ff0000;fill-opacity:1.0000000;fill-rule:nonzero;stroke:none;stroke-width:1.6900001;stroke-miterlimit:4.0000000;stroke-dashoffset:0.00000000;stroke-opacity:1.0000000"
         id="path3720"
         sodipodi:cx="219.94737"
         sodipodi:cy="149.00691"
         sodipodi:rx="8.0298243"
         sodipodi:ry="7.5061402"
         d="M 227.97720 149.00691 A 8.0298243 7.5061402 0 1 1  211.91755,149.00691 A 8.0298243 7.5061402 0 1 1  227.97720 149.00691 z"
         transform="matrix(-1.424061,0.000000,0.000000,-1.468919,453.7913,418.9675)" />
      <path
         id="path3722"
         d="M 169.37089,220.55193 L 160.02079,225.57416 L 143.98063,231.06248 L 167.78283,229.03281 L 169.37089,220.55193 z "
         style="fill:#00c400;fill-opacity:1.0000000;fill-rule:evenodd;stroke:none;stroke-width:1.0000000px;stroke-linecap:butt;stroke-linejoin:miter;stroke-opacity:1.0000000" />
      <path
         id="path3724"
         d="M 168.86957,221.59511 L 149.56108,206.18730"
         style="fill:none;fill-opacity:0.75000000;fill-rule:evenodd;stroke:#00c400;stroke-width:1.4971434px;stroke-linecap:butt;stroke-linejoin:miter;stroke-opacity:1.0000000" />
      <path
         sodipodi:type="arc"
         style="fill:#ff0000;fill-opacity:1.0000000;fill-rule:nonzero;stroke:none;stroke-width:1.6900001;stroke-miterlimit:4.0000000;stroke-dashoffset:0.00000000;stroke-opacity:1.0000000"
         id="path5244"
         sodipodi:cx="219.94737"
         sodipodi:cy="149.00691"
         sodipodi:rx="8.0298243"
         sodipodi:ry="7.5061402"
         d="M 227.97720 149.00691 A 8.0298243 7.5061402 0 1 1  211.91755,149.00691 A 8.0298243 7.5061402 0 1 1  227.97720 149.00691 z"
         transform="matrix(1.424061,0.000000,0.000000,-1.468919,-263.3724,479.7280)" />
      <path
         id="path5246"
         d="M 21.346175,281.88756 L 30.696275,286.90978 L 46.736435,292.39810 L 22.934235,290.36844 L 21.346175,281.88756 z "
         style="fill:#00c400;fill-opacity:1.0000000;fill-rule:evenodd;stroke:none;stroke-width:1.0000000px;stroke-linecap:butt;stroke-linejoin:miter;stroke-opacity:1.0000000" />
      <path
         id="path5248"
         d="M 21.549255,282.35559 L 40.857745,266.94778"
         style="fill:none;fill-opacity:0.75000000;fill-rule:evenodd;stroke:#00c400;stroke-width:1.4971434px;stroke-linecap:butt;stroke-linejoin:miter;stroke-opacity:1.0000000" />
      <path
         id="path5250"
         d="M -60.501927,285.15237 L 0.75257470,295.10326"
         style="fill:none;fill-opacity:0.75000000;fill-rule:evenodd;stroke:#00c400;stroke-width:1.4971434px;stroke-linecap:butt;stroke-linejoin:miter;stroke-opacity:1.0000000" />
      <path
         sodipodi:nodetypes="cc"
         id="path5252"
         d="M -37.417051,289.53597 L -51.180602,307.94311"
         style="fill:none;fill-opacity:0.75000000;fill-rule:evenodd;stroke:#00c400;stroke-width:1.4971434px;stroke-linecap:butt;stroke-linejoin:miter;stroke-opacity:1.0000000" />
      <path
         sodipodi:nodetypes="cc"
         id="path5254"
         d="M -22.883665,358.01853 L -9.1894653,373.00506"
         style="fill:none;fill-opacity:0.75000000;fill-rule:evenodd;stroke:#00c400;stroke-width:1.4971434px;stroke-linecap:butt;stroke-linejoin:miter;stroke-opacity:1.0000000" />
      <path
         id="path5256"
         d="M 75.989085,356.41353 L -34.202439,378.88328"
         style="fill:none;fill-opacity:0.75000000;fill-rule:evenodd;stroke:#00c400;stroke-width:1.4971434px;stroke-linecap:butt;stroke-linejoin:miter;stroke-opacity:1.0000000" />
      <path
         sodipodi:nodetypes="cc"
         id="path5258"
         d="M 36.408075,364.48194 L 18.063625,401.67400"
         style="fill:none;fill-opacity:0.75000000;fill-rule:evenodd;stroke:#00c400;stroke-width:1.4971434px;stroke-linecap:butt;stroke-linejoin:miter;stroke-opacity:1.0000000" />
      <path
         id="path5260"
         d="M 25.720455,313.40003 L 16.732005,253.05275"
         style="fill:none;fill-opacity:0.75000000;fill-rule:evenodd;stroke:#00c400;stroke-width:1.4971434px;stroke-linecap:butt;stroke-linejoin:miter;stroke-opacity:1.0000000" />
      <path
         id="path5262"
         d="M 82.314285,179.86561 L 19.062345,169.91472"
         style="fill:none;fill-opacity:0.75000000;fill-rule:evenodd;stroke:#00c400;stroke-width:1.4971434px;stroke-linecap:butt;stroke-linejoin:miter;stroke-opacity:1.0000000" />
      <path
         id="path5264"
         d="M 44.363115,174.72966 L 30.381115,192.38446"
         style="fill:none;fill-opacity:0.75000000;fill-rule:evenodd;stroke:#00c400;stroke-width:1.4971434px;stroke-linecap:butt;stroke-linejoin:miter;stroke-opacity:1.0000000" />
      <path
         id="path5266"
         d="M 143.90169,115.34536 L 184.18319,125.29625"
         style="fill:none;fill-opacity:0.75000000;fill-rule:evenodd;stroke:#00c400;stroke-width:1.4971434px;stroke-linecap:butt;stroke-linejoin:miter;stroke-opacity:1.0000000" />
      <path
         id="path5268"
         d="M 163.87599,254.97872 L 173.86314,194.95242"
         style="fill:none;fill-opacity:0.75000000;fill-rule:evenodd;stroke:#00c400;stroke-width:1.4971434px;stroke-linecap:butt;stroke-linejoin:miter;stroke-opacity:1.0000000" />
      <path
         id="path5270"
         d="M 193.50452,232.18799 L 255.09194,223.84209"
         style="fill:none;fill-opacity:0.75000000;fill-rule:evenodd;stroke:#00c400;stroke-width:1.4971434px;stroke-linecap:butt;stroke-linejoin:miter;stroke-opacity:1.0000000" />
      <path
         id="path5272"
         d="M 230.78988,227.37304 L 243.44026,246.63283"
         style="fill:none;fill-opacity:0.75000000;fill-rule:evenodd;stroke:#00c400;stroke-width:1.4971434px;stroke-linecap:butt;stroke-linejoin:miter;stroke-opacity:1.0000000" />
      <path
         id="path5274"
         d="M 165.72344,254.48078 L 155.40770,251.73002 L 139.98745,244.78350 L 158.41879,259.44679 L 165.72344,254.48078 z "
         style="fill:#00c400;fill-opacity:1.0000000;fill-rule:evenodd;stroke:none;stroke-width:1.0000000px;stroke-linecap:butt;stroke-linejoin:miter;stroke-opacity:1.0000000" />
      <path
         id="path5276"
         d="M 193.32071,230.34313 L 194.91671,240.54782 L 200.22104,256.14180 L 187.33218,236.74059 L 193.32071,230.34313 z "
         style="fill:#00c400;fill-opacity:1.0000000;fill-rule:evenodd;stroke:none;stroke-width:1.0000000px;stroke-linecap:butt;stroke-linejoin:miter;stroke-opacity:1.0000000" />
      <path
         id="path5278"
         d="M 230.88532,227.36341 L 225.94330,236.51744 L 220.70727,252.13285 L 222.13825,229.13388 L 230.88532,227.36341 z "
         style="fill:#00c400;fill-opacity:1.0000000;fill-rule:evenodd;stroke:none;stroke-width:1.0000000px;stroke-linecap:butt;stroke-linejoin:miter;stroke-opacity:1.0000000" />
      <path
         id="path5280"
         d="M 145.01728,114.66680 L 145.37917,124.98096 L 148.77839,141.06163 L 138.30194,120.35385 L 145.01728,114.66680 z "
         style="fill:#00c400;fill-opacity:1.0000000;fill-rule:evenodd;stroke:none;stroke-width:1.0000000px;stroke-linecap:butt;stroke-linejoin:miter;stroke-opacity:1.0000000" />
      <path
         id="path5282"
         d="M 82.933895,178.49322 L 78.258485,187.77654 L 68.378465,201.13974 L 86.674755,186.32004 L 82.933895,178.49322 z "
         style="fill:#00c400;fill-opacity:1.0000000;fill-rule:evenodd;stroke:none;stroke-width:1.0000000px;stroke-linecap:butt;stroke-linejoin:miter;stroke-opacity:1.0000000" />
      <path
         id="path5284"
         d="M 43.985765,174.33298 L 50.830805,182.26652 L 59.385955,196.45396 L 52.923275,174.27232 L 43.985765,174.33298 z "
         style="fill:#00c400;fill-opacity:1.0000000;fill-rule:evenodd;stroke:none;stroke-width:1.0000000px;stroke-linecap:butt;stroke-linejoin:miter;stroke-opacity:1.0000000" />
      <path
         id="path5286"
         d="M 24.287785,313.72450 L 34.739415,311.50134 L 50.517655,305.34740 L 31.311105,319.05451 L 24.287785,313.72450 z "
         style="fill:#00c400;fill-opacity:1.0000000;fill-rule:evenodd;stroke:none;stroke-width:1.0000000px;stroke-linecap:butt;stroke-linejoin:miter;stroke-opacity:1.0000000" />
      <path
         id="path5288"
         d="M -0.56360530,294.16318 L -0.90040530,304.47812 L -4.2605653,320.56644 L 6.1655747,299.83505 L -0.56360530,294.16318 z "
         style="fill:#00c400;fill-opacity:1.0000000;fill-rule:evenodd;stroke:none;stroke-width:1.0000000px;stroke-linecap:butt;stroke-linejoin:miter;stroke-opacity:1.0000000" />
      <path
         id="path5290"
         d="M -38.285190,289.25162 L -32.835999,298.13398 L -26.730145,313.45290 L -29.451445,290.56248 L -38.285190,289.25162 z "
         style="fill:#00c400;fill-opacity:1.0000000;fill-rule:evenodd;stroke:none;stroke-width:1.0000000px;stroke-linecap:butt;stroke-linejoin:miter;stroke-opacity:1.0000000" />
      <path
         id="path5292"
         d="M -10.132255,373.34176 L -4.8654053,364.35771 L 0.92659470,348.92591 L -1.3269753,371.86353 L -10.132255,373.34176 z "
         style="fill:#00c400;fill-opacity:1.0000000;fill-rule:evenodd;stroke:none;stroke-width:1.0000000px;stroke-linecap:butt;stroke-linejoin:miter;stroke-opacity:1.0000000" />
      <path
         id="path5294"
         d="M 74.839215,355.58559 L 74.410575,365.89737 L 70.907245,381.95725 L 81.517635,361.31298 L 74.839215,355.58559 z "
         style="fill:#00c400;fill-opacity:1.0000000;fill-rule:evenodd;stroke:none;stroke-width:1.0000000px;stroke-linecap:butt;stroke-linejoin:miter;stroke-opacity:1.0000000" />
      <path
         id="path5296"
         d="M 34.486595,364.40105 L 41.849085,371.89146 L 51.337225,385.51612 L 43.401355,363.78359 L 34.486595,364.40105 z "
         style="fill:#00c400;fill-opacity:1.0000000;fill-rule:evenodd;stroke:none;stroke-width:1.0000000px;stroke-linecap:butt;stroke-linejoin:miter;stroke-opacity:1.0000000" />
      <path
         sodipodi:type="arc"
         style="fill:#ff0000;fill-opacity:1.0000000;fill-rule:nonzero;stroke:none;stroke-width:1.6900001;stroke-miterlimit:4.0000000;stroke-dashoffset:0.00000000;stroke-opacity:1.0000000"
         id="path9088"
         sodipodi:cx="219.94737"
         sodipodi:cy="149.00691"
         sodipodi:rx="8.0298243"
         sodipodi:ry="7.5061402"
         d="M 227.97720 149.00691 A 8.0298243 7.5061402 0 1 1  211.91755,149.00691 A 8.0298243 7.5061402 0 1 1  227.97720 149.00691 z"
         transform="matrix(-1.424061,0.000000,0.000000,-1.468919,330.6532,387.1865)" />
      <path
         sodipodi:type="arc"
         style="fill:#ff0000;fill-opacity:1.0000000;fill-rule:nonzero;stroke:none;stroke-width:1.6900001;stroke-miterlimit:4.0000000;stroke-dashoffset:0.00000000;stroke-opacity:1.0000000"
         id="path9090"
         sodipodi:cx="219.94737"
         sodipodi:cy="149.00691"
         sodipodi:rx="8.0298243"
         sodipodi:ry="7.5061402"
         d="M 227.97720 149.00691 A 8.0298243 7.5061402 0 1 1  211.91755,149.00691 A 8.0298243 7.5061402 0 1 1  227.97720 149.00691 z"
         transform="matrix(-1.424061,0.000000,0.000000,-1.468919,327.0142,467.0090)" />
      <path
         sodipodi:type="arc"
         style="fill:#ff0000;fill-opacity:1.0000000;fill-rule:nonzero;stroke:none;stroke-width:1.6900001;stroke-miterlimit:4.0000000;stroke-dashoffset:0.00000000;stroke-opacity:1.0000000"
         id="path9092"
         sodipodi:cx="219.94737"
         sodipodi:cy="149.00691"
         sodipodi:rx="8.0298243"
         sodipodi:ry="7.5061402"
         d="M 227.97720 149.00691 A 8.0298243 7.5061402 0 1 1  211.91755,149.00691 A 8.0298243 7.5061402 0 1 1  227.97720 149.00691 z"
         transform="matrix(-1.424061,0.000000,0.000000,-1.468919,249.6888,502.9728)" />
      <path
         sodipodi:type="arc"
         style="fill:#ff0000;fill-opacity:1.0000000;fill-rule:nonzero;stroke:none;stroke-width:1.6900001;stroke-miterlimit:4.0000000;stroke-dashoffset:0.00000000;stroke-opacity:1.0000000"
         id="path9094"
         sodipodi:cx="219.94737"
         sodipodi:cy="149.00691"
         sodipodi:rx="8.0298243"
         sodipodi:ry="7.5061402"
         d="M 227.97720 149.00691 A 8.0298243 7.5061402 0 1 1  211.91755,149.00691 A 8.0298243 7.5061402 0 1 1  227.97720 149.00691 z"
         transform="matrix(-1.424061,0.000000,0.000000,-1.468919,258.7859,530.1651)" />
      <path
         sodipodi:type="arc"
         style="fill:#ff0000;fill-opacity:1.0000000;fill-rule:nonzero;stroke:none;stroke-width:1.6900001;stroke-miterlimit:4.0000000;stroke-dashoffset:0.00000000;stroke-opacity:1.0000000"
         id="path9096"
         sodipodi:cx="219.94737"
         sodipodi:cy="149.00691"
         sodipodi:rx="8.0298243"
         sodipodi:ry="7.5061402"
         d="M 227.97720 149.00691 A 8.0298243 7.5061402 0 1 1  211.91755,149.00691 A 8.0298243 7.5061402 0 1 1  227.97720 149.00691 z"
         transform="matrix(-1.424061,0.000000,0.000000,-1.468919,286.0772,573.1464)" />
      <path
         sodipodi:type="arc"
         style="fill:#ff0000;fill-opacity:1.0000000;fill-rule:nonzero;stroke:none;stroke-width:1.6900001;stroke-miterlimit:4.0000000;stroke-dashoffset:0.00000000;stroke-opacity:1.0000000"
         id="path9098"
         sodipodi:cx="219.94737"
         sodipodi:cy="149.00691"
         sodipodi:rx="8.0298243"
         sodipodi:ry="7.5061402"
         d="M 227.97720 149.00691 A 8.0298243 7.5061402 0 1 1  211.91755,149.00691 A 8.0298243 7.5061402 0 1 1  227.97720 149.00691 z"
         transform="matrix(-1.424061,0.000000,0.000000,-1.468919,275.1607,601.2159)" />
      <path
         sodipodi:type="arc"
         style="fill:#ff0000;fill-opacity:1.0000000;fill-rule:nonzero;stroke:none;stroke-width:1.6900001;stroke-miterlimit:4.0000000;stroke-dashoffset:0.00000000;stroke-opacity:1.0000000"
         id="path9100"
         sodipodi:cx="219.94737"
         sodipodi:cy="149.00691"
         sodipodi:rx="8.0298243"
         sodipodi:ry="7.5061402"
         d="M 227.97720 149.00691 A 8.0298243 7.5061402 0 1 1  211.91755,149.00691 A 8.0298243 7.5061402 0 1 1  227.97720 149.00691 z"
         transform="matrix(-1.424061,0.000000,0.000000,-1.468919,328.8337,624.0222)" />
      <path
         sodipodi:type="arc"
         style="fill:#ff0000;fill-opacity:1.0000000;fill-rule:nonzero;stroke:none;stroke-width:1.6900001;stroke-miterlimit:4.0000000;stroke-dashoffset:0.00000000;stroke-opacity:1.0000000"
         id="path9102"
         sodipodi:cx="219.94737"
         sodipodi:cy="149.00691"
         sodipodi:rx="8.0298243"
         sodipodi:ry="7.5061402"
         d="M 227.97720 149.00691 A 8.0298243 7.5061402 0 1 1  211.91755,149.00691 A 8.0298243 7.5061402 0 1 1  227.97720 149.00691 z"
         transform="matrix(-1.424061,0.000000,0.000000,-1.468919,572.6363,443.3254)" />
      <path
         sodipodi:type="arc"
         style="fill:#ff0000;fill-opacity:1.0000000;fill-rule:nonzero;stroke:none;stroke-width:1.6900001;stroke-miterlimit:4.0000000;stroke-dashoffset:0.00000000;stroke-opacity:1.0000000"
         id="path9104"
         sodipodi:cx="219.94737"
         sodipodi:cy="149.00691"
         sodipodi:rx="8.0298243"
         sodipodi:ry="7.5061402"
         d="M 227.97720 149.00691 A 8.0298243 7.5061402 0 1 1  211.91755,149.00691 A 8.0298243 7.5061402 0 1 1  227.97720 149.00691 z"
         transform="matrix(-1.424061,0.000000,0.000000,-1.468919,559.9004,468.7632)" />
      <path
         sodipodi:type="arc"
         style="fill:#ff0000;fill-opacity:1.0000000;fill-rule:nonzero;stroke:none;stroke-width:1.6900001;stroke-miterlimit:4.0000000;stroke-dashoffset:0.00000000;stroke-opacity:1.0000000"
         id="path9106"
         sodipodi:cx="219.94737"
         sodipodi:cy="149.00691"
         sodipodi:rx="8.0298243"
         sodipodi:ry="7.5061402"
         d="M 227.97720 149.00691 A 8.0298243 7.5061402 0 1 1  211.91755,149.00691 A 8.0298243 7.5061402 0 1 1  227.97720 149.00691 z"
         transform="matrix(-1.424061,0.000000,0.000000,-1.468919,487.1234,409.9929)" />
      <path
         sodipodi:type="arc"
         style="fill:#ff0000;fill-opacity:1.0000000;fill-rule:nonzero;stroke:none;stroke-width:1.6900001;stroke-miterlimit:4.0000000;stroke-dashoffset:0.00000000;stroke-opacity:1.0000000"
         id="path9108"
         sodipodi:cx="219.94737"
         sodipodi:cy="149.00691"
         sodipodi:rx="8.0298243"
         sodipodi:ry="7.5061402"
         d="M 227.97720 149.00691 A 8.0298243 7.5061402 0 1 1  211.91755,149.00691 A 8.0298243 7.5061402 0 1 1  227.97720 149.00691 z"
         transform="matrix(-1.424061,0.000000,0.000000,-1.468919,500.7692,345.9596)" />
      <path
         sodipodi:type="arc"
         style="fill:#ff0000;fill-opacity:1.0000000;fill-rule:nonzero;stroke:none;stroke-width:1.6900001;stroke-miterlimit:4.0000000;stroke-dashoffset:0.00000000;stroke-opacity:1.0000000"
         id="path9110"
         sodipodi:cx="219.94737"
         sodipodi:cy="149.00691"
         sodipodi:rx="8.0298243"
         sodipodi:ry="7.5061402"
         d="M 227.97720 149.00691 A 8.0298243 7.5061402 0 1 1  211.91755,149.00691 A 8.0298243 7.5061402 0 1 1  227.97720 149.00691 z"
         transform="matrix(-1.424061,0.000000,0.000000,-1.468919,341.4365,413.0350)" />
    </g>
    <path
       id="path1380"
       d="M 192.27719,62.435019 L 213.18912,44.071508"
       style="fill:none;fill-opacity:0.75000000;fill-rule:evenodd;stroke:#00c400;stroke-width:1.4971434px;stroke-linecap:butt;stroke-linejoin:miter;stroke-opacity:1.0000000" />
    <path
       id="path1378"
       d="M 190.85108,499.25143 L 191.76857,17.115998"
       style="fill:none;fill-opacity:0.75000000;fill-rule:evenodd;stroke:#00c400;stroke-width:1.4971434px;stroke-linecap:butt;stroke-linejoin:miter;stroke-opacity:1.0000000" />
    <path
       sodipodi:type="arc"
       style="fill:#ff0000;fill-opacity:1.0000000;fill-rule:nonzero;stroke:none;stroke-width:1.6900001;stroke-miterlimit:4.0000000;stroke-dashoffset:0.00000000;stroke-opacity:1.0000000"
       id="path1398"
       sodipodi:cx="219.94737"
       sodipodi:cy="149.00691"
       sodipodi:rx="8.0298243"
       sodipodi:ry="7.5061402"
       d="M 227.97720 149.00691 A 8.0298243 7.5061402 0 1 1  211.91755,149.00691 A 8.0298243 7.5061402 0 1 1  227.97720 149.00691 z"
       transform="matrix(1.424061,0.000000,0.000000,-1.468919,-92.46072,257.6174)" />
    <path
       sodipodi:type="arc"
       style="fill:#ff0000;fill-opacity:1.0000000;fill-rule:nonzero;stroke:none;stroke-width:1.6900001;stroke-miterlimit:4.0000000;stroke-dashoffset:0.00000000;stroke-opacity:1.0000000"
       id="path2930"
       sodipodi:cx="219.94737"
       sodipodi:cy="149.00691"
       sodipodi:rx="8.0298243"
       sodipodi:ry="7.5061402"
       d="M 227.97720 149.00691 A 8.0298243 7.5061402 0 1 1  211.91755,149.00691 A 8.0298243 7.5061402 0 1 1  227.97720 149.00691 z"
       transform="matrix(1.424061,0.000000,0.000000,-1.468919,-122.1285,229.9050)" />
    <path
       sodipodi:type="arc"
       style="fill:#ff0000;fill-opacity:1.0000000;fill-rule:nonzero;stroke:none;stroke-width:1.6900001;stroke-miterlimit:4.0000000;stroke-dashoffset:0.00000000;stroke-opacity:1.0000000"
       id="path2932"
       sodipodi:cx="219.94737"
       sodipodi:cy="149.00691"
       sodipodi:rx="8.0298243"
       sodipodi:ry="7.5061402"
       d="M 227.97720 149.00691 A 8.0298243 7.5061402 0 1 1  211.91755,149.00691 A 8.0298243 7.5061402 0 1 1  227.97720 149.00691 z"
       transform="matrix(1.424061,0.000000,0.000000,-1.468919,-144.4332,273.2395)" />
  </g>
</svg>
